
<svg width="500" height="400" viewBox="0 0 500 400" xmlns="http://www.w3.org/2000/svg">
  <!-- Sky background -->
  <rect x="0" y="0" width="500" height="300" fill="#B3E5FC" />
  
  <!-- Sun -->
  <circle cx="80" cy="80" r="40" fill="#FFEB3B" />
  
  <!-- Clouds -->
  <circle cx="150" cy="100" r="25" fill="white" />
  <circle cx="180" cy="100" r="30" fill="white" />
  <circle cx="210" cy="100" r="25" fill="white" />
  
  <circle cx="350" cy="70" r="20" fill="white" />
  <circle cx="380" cy="70" r="25" fill="white" />
  <circle cx="410" cy="70" r="20" fill="white" />
  
  <!-- Ground -->
  <rect x="0" y="300" width="500" height="100" fill="#8BC34A" />
  
  <!-- City skyline -->
  <!-- Building 1 -->
  <rect x="50" y="170" width="60" height="130" fill="#455A64" />
  <rect x="55" y="180" width="10" height="15" fill="#90CAF9" />
  <rect x="75" y="180" width="10" height="15" fill="#90CAF9" />
  <rect x="95" y="180" width="10" height="15" fill="#90CAF9" />
  <rect x="55" y="205" width="10" height="15" fill="#90CAF9" />
  <rect x="75" y="205" width="10" height="15" fill="#90CAF9" />
  <rect x="95" y="205" width="10" height="15" fill="#90CAF9" />
  <rect x="55" y="230" width="10" height="15" fill="#90CAF9" />
  <rect x="75" y="230" width="10" height="15" fill="#90CAF9" />
  <rect x="95" y="230" width="10" height="15" fill="#90CAF9" />
  <rect x="55" y="255" width="10" height="15" fill="#90CAF9" />
  <rect x="75" y="255" width="10" height="15" fill="#90CAF9" />
  <rect x="95" y="255" width="10" height="15" fill="#90CAF9" />
  
  <!-- Building 2 (Taller) -->
  <rect x="120" y="130" width="70" height="170" fill="#37474F" />
  <rect x="125" y="140" width="12" height="20" fill="#90CAF9" />
  <rect x="145" y="140" width="12" height="20" fill="#90CAF9" />
  <rect x="165" y="140" width="12" height="20" fill="#90CAF9" />
  <rect x="125" y="170" width="12" height="20" fill="#90CAF9" />
  <rect x="145" y="170" width="12" height="20" fill="#90CAF9" />
  <rect x="165" y="170" width="12" height="20" fill="#90CAF9" />
  <rect x="125" y="200" width="12" height="20" fill="#90CAF9" />
  <rect x="145" y="200" width="12" height="20" fill="#90CAF9" />
  <rect x="165" y="200" width="12" height="20" fill="#90CAF9" />
  <rect x="125" y="230" width="12" height="20" fill="#90CAF9" />
  <rect x="145" y="230" width="12" height="20" fill="#90CAF9" />
  <rect x="165" y="230" width="12" height="20" fill="#90CAF9" />
  <rect x="125" y="260" width="12" height="20" fill="#90CAF9" />
  <rect x="145" y="260" width="12" height="20" fill="#90CAF9" />
  <rect x="165" y="260" width="12" height="20" fill="#90CAF9" />
  
  <!-- Building 3 (Skyscraper) -->
  <rect x="200" y="100" width="50" height="200" fill="#546E7A" />
  <rect x="205" y="110" width="8" height="10" fill="#90CAF9" />
  <rect x="220" y="110" width="8" height="10" fill="#90CAF9" />
  <rect x="235" y="110" width="8" height="10" fill="#90CAF9" />
  <rect x="205" y="130" width="8" height="10" fill="#90CAF9" />
  <rect x="220" y="130" width="8" height="10" fill="#90CAF9" />
  <rect x="235" y="130" width="8" height="10" fill="#90CAF9" />
  <rect x="205" y="150" width="8" height="10" fill="#90CAF9" />
  <rect x="220" y="150" width="8" height="10" fill="#90CAF9" />
  <rect x="235" y="150" width="8" height="10" fill="#90CAF9" />
  <rect x="205" y="170" width="8" height="10" fill="#90CAF9" />
  <rect x="220" y="170" width="8" height="10" fill="#90CAF9" />
  <rect x="235" y="170" width="8" height="10" fill="#90CAF9" />
  <rect x="205" y="190" width="8" height="10" fill="#90CAF9" />
  <rect x="220" y="190" width="8" height="10" fill="#90CAF9" />
  <rect x="235" y="190" width="8" height="10" fill="#90CAF9" />
  <rect x="205" y="210" width="8" height="10" fill="#90CAF9" />
  <rect x="220" y="210" width="8" height="10" fill="#90CAF9" />
  <rect x="235" y="210" width="8" height="10" fill="#90CAF9" />
  <rect x="205" y="230" width="8" height="10" fill="#90CAF9" />
  <rect x="220" y="230" width="8" height="10" fill="#90CAF9" />
  <rect x="235" y="230" width="8" height="10" fill="#90CAF9" />
  <rect x="205" y="250" width="8" height="10" fill="#90CAF9" />
  <rect x="220" y="250" width="8" height="10" fill="#90CAF9" />
  <rect x="235" y="250" width="8" height="10" fill="#90CAF9" />
  <rect x="205" y="270" width="8" height="10" fill="#90CAF9" />
  <rect x="220" y="270" width="8" height="10" fill="#90CAF9" />
  <rect x="235" y="270" width="8" height="10" fill="#90CAF9" />
  
  <!-- Building 4 -->
  <rect x="260" y="150" width="60" height="150" fill="#455A64" />
  <rect x="265" y="160" width="10" height="15" fill="#90CAF9" />
  <rect x="285" y="160" width="10" height="15" fill="#90CAF9" />
  <rect x="305" y="160" width="10" height="15" fill="#90CAF9" />
  <rect x="265" y="185" width="10" height="15" fill="#90CAF9" />
  <rect x="285" y="185" width="10" height="15" fill="#90CAF9" />
  <rect x="305" y="185" width="10" height="15" fill="#90CAF9" />
  <rect x="265" y="210" width="10" height="15" fill="#90CAF9" />
  <rect x="285" y="210" width="10" height="15" fill="#90CAF9" />
  <rect x="305" y="210" width="10" height="15" fill="#90CAF9" />
  <rect x="265" y="235" width="10" height="15" fill="#90CAF9" />
  <rect x="285" y="235" width="10" height="15" fill="#90CAF9" />
  <rect x="305" y="235" width="10" height="15" fill="#90CAF9" />
  <rect x="265" y="260" width="10" height="15" fill="#90CAF9" />
  <rect x="285" y="260" width="10" height="15" fill="#90CAF9" />
  <rect x="305" y="260" width="10" height="15" fill="#90CAF9" />
  
  <!-- Building 5 -->
  <rect x="330" y="180" width="80" height="120" fill="#37474F" />
  <rect x="340" y="190" width="15" height="20" fill="#90CAF9" />
  <rect x="365" y="190" width="15" height="20" fill="#90CAF9" />
  <rect x="390" y="190" width="15" height="20" fill="#90CAF9" />
  <rect x="340" y="220" width="15" height="20" fill="#90CAF9" />
  <rect x="365" y="220" width="15" height="20" fill="#90CAF9" />
  <rect x="390" y="220" width="15" height="20" fill="#90CAF9" />
  <rect x="340" y="250" width="15" height="20" fill="#90CAF9" />
  <rect x="365" y="250" width="15" height="20" fill="#90CAF9" />
  <rect x="390" y="250" width="15" height="20" fill="#90CAF9" />
  
  <!-- Building 6 -->
  <rect x="420" y="200" width="50" height="100" fill="#546E7A" />
  <rect x="425" y="210" width="8" height="15" fill="#90CAF9" />
  <rect x="440" y="210" width="8" height="15" fill="#90CAF9" />
  <rect x="455" y="210" width="8" height="15" fill="#90CAF9" />
  <rect x="425" y="235" width="8" height="15" fill="#90CAF9" />
  <rect x="440" y="235" width="8" height="15" fill="#90CAF9" />
  <rect x="455" y="235" width="8" height="15" fill="#90CAF9" />
  <rect x="425" y="260" width="8" height="15" fill="#90CAF9" />
  <rect x="440" y="260" width="8" height="15" fill="#90CAF9" />
  <rect x="455" y="260" width="8" height="15" fill="#90CAF9" />
  
  <!-- Trees -->
  <rect x="30" y="280" width="5" height="20" fill="#795548" />
  <circle cx="32.5" cy="275" r="10" fill="#4CAF50" />
  
  <rect x="380" y="280" width="5" height="20" fill="#795548" />
  <circle cx="382.5" cy="275" r="10" fill="#4CAF50" />
  
  <rect x="410" y="280" width="5" height="20" fill="#795548" />
  <circle cx="412.5" cy="275" r="10" fill="#4CAF50" />
  
  <rect x="440" y="280" width="5" height="20" fill="#795548" />
  <circle cx="442.5" cy="275" r="10" fill="#4CAF50" />
  
  <rect x="470" y="280" width="5" height="20" fill="#795548" />
  <circle cx="472.5" cy="275" r="10" fill="#4CAF50" />
</svg>
